<?xml version="1.0"?>
<svg xmlns="http://www.w3.org/2000/svg" viewBox="0 0 32 32">
    <path d="M 3.71875 2.28125 L 2.28125 3.71875 L 28.28125 29.71875 L 29.71875 28.28125 L 25.4375 24 L 26 24 C 29.309 24 32 21.309 32 18 C 32 15.835 30.845 13.8755 29 12.8125 C 28.895 9.5955 26.242 7 23 7 C 22.611 7 22.2085 7.04 21.8125 7.125 C 20.5225 5.178 18.372 4 16 4 C 13.192299 4 10.721605 5.7089909 9.625 8.1875 L 3.71875 2.28125 z M 16 6 C 17.894 6 19.61175 7.053 20.46875 8.75 L 20.84375 9.53125 L 21.6875 9.25 C 22.1545 9.086 22.582 9 23 9 C 25.206 9 27 10.794 27 13 C 27 13.038 27.005 13.088 27 13.125 C 26.991 13.193 26.97475 13.2425 26.96875 13.3125 L 26.90625 14.03125 L 27.5625 14.3125 C 29.0395 14.9425 30 16.395 30 18 C 30 20.206 28.206 22 26 22 L 23.4375 22 L 19.9375 18.5 C 19.977614 18.342902 20 18.169989 20 18 C 20 16.895 18 14 18 14 C 18 14 17.494052 14.71355 17 15.5625 L 11.1875 9.75 C 11.748082 7.5770197 13.7185 6 16 6 z M 6.9375 11.125 C 6.7395 11.403 6.54425 11.71525 6.40625 12.03125 C 2.91025 11.77225 5.9211895e-16 14.553 0 18 C 0 21.309 2.691 24 6 24 L 8 24 L 9 22 L 6 22 C 3.794 22 2 20.206 2 18 C 2 15.794 3.794 14 6 14 C 6.277 14 6.559 14.02275 6.875 14.09375 L 7.875 14.3125 L 8.0625 13.34375 C 8.1235 13.06875 8.243 12.8045 8.375 12.5625 L 6.9375 11.125 z M 13 19 C 13 19 11 21.895 11 23 C 11 24.105 11.895 25 13 25 C 14.105 25 15 24.105 15 23 C 15 21.895 13 19 13 19 z M 19.78125 23.96875 C 19.36525 24.72575 19 25.53 19 26 C 19 27.105 19.895 28 21 28 C 21.759 28 22.411 27.5595 22.75 26.9375 L 19.78125 23.96875 z"/>
</svg>
